<?xml version="1.0" encoding="UTF-8" standalone="no"?>
<!DOCTYPE svg PUBLIC "-//W3C//DTD SVG 1.1//EN" "http://www.w3.org/Graphics/SVG/1.1/DTD/svg11.dtd">
<svg width="100%" height="100%" viewBox="0 0 16 16" version="1.1" xmlns="http://www.w3.org/2000/svg" xmlns:xlink="http://www.w3.org/1999/xlink" xml:space="preserve" xmlns:serif="http://www.serif.com/" style="fill-rule:evenodd;clip-rule:evenodd;stroke-linejoin:round;stroke-miterlimit:1.41421;">
    <g transform="matrix(1,0,0,1,-84,-89)">
        <g transform="matrix(2,0,0,2,83.9795,90.995)">
            <path d="M4,0C2.35,0 1,1.35 1,3L0,3L1.5,5L3,3L2,3C2,1.89 2.89,1 4,1L4,0ZM6.5,1L5,3L6,3C6,4.11 5.11,5 4,5L4,6C5.65,6 7,4.65 7,3L8,3L6.5,1Z" style="fill:rgb(197,197,197);fill-rule:nonzero;"/>
        </g>
    </g>
</svg>
